<svg width="100" height="100" viewBox="0 0 100 100" fill="none" xmlns="http://www.w3.org/2000/svg">
    <rect width="100" height="100" fill="#1E1E1E" />
    <g id="triangles">
        <rect width="100" height="100" fill="white" />
        <g id="darkGroup">
            <g id="dark2" opacity="0.7" filter="url(#filter0_d_0_1)">
                <path
                    d="M27 33.268C28.3333 34.0378 28.3333 35.9623 27 36.7321L10.5 46.2583C9.16667 47.0281 7.5 46.0659 7.5 44.5263V25.4737C7.5 23.9341 9.16667 22.9719 10.5 23.7417L27 33.268Z"
                    fill="#4A65C3" />
            </g>
            <path id="dark1" opacity="0.7"
                d="M42 33.268C43.3333 34.0378 43.3333 35.9623 42 36.7321L25.5 46.2583C24.1667 47.0281 22.5 46.0659 22.5 44.5263V25.4737C22.5 23.9341 24.1667 22.9719 25.5 23.7417L42 33.268Z"
                fill="#4A65C4" />
        </g>
        <g id="lightGroup">
            <path id="light1" opacity="0.7"
                d="M27 33.268C28.3333 34.0378 28.3333 35.9623 27 36.7321L10.5 46.2583C9.16667 47.0281 7.5 46.0659 7.5 44.5263V25.4737C7.5 23.9341 9.16667 22.9719 10.5 23.7417L27 33.268Z"
                fill="#1BE4CC" />
        </g>
    </g>
    <defs>
        <filter id="filter0_d_0_1" x="3.5" y="23.4707" width="28.5" height="31.0585" filterUnits="userSpaceOnUse"
            color-interpolation-filters="sRGB">
            <feFlood flood-opacity="0" result="BackgroundImageFix" />
            <feColorMatrix in="SourceAlpha" type="matrix" values="0 0 0 0 0 0 0 0 0 0 0 0 0 0 0 0 0 0 127 0"
                result="hardAlpha" />
            <feOffset dy="4" />
            <feGaussianBlur stdDeviation="2" />
            <feComposite in2="hardAlpha" operator="out" />
            <feColorMatrix type="matrix" values="0 0 0 0 0 0 0 0 0 0 0 0 0 0 0 0 0 0 0.25 0" />
            <feBlend mode="normal" in2="BackgroundImageFix" result="effect1_dropShadow_0_1" />
            <feBlend mode="normal" in="SourceGraphic" in2="effect1_dropShadow_0_1" result="shape" />
        </filter>
    </defs>
</svg>